# xmcd
# 
# Track frame offsets:
#     150
#     16076
#     29409
#     46192
#     61288
#     75351
#     88946
#     103474
#     112924
#     126884
#     143632
#     157526
#     181966
#     203440
#     220872
#     237490
#     254985
#     283748
#     306601
#     327254
#     341300
# 
# Disc length: 4738
# 
# Revision: 8
# Processed by: cddbd v1.5.2PL0 Copyright (c) Steve Scherf et al.
# Submitted via: fre:ac v1.0.31
# 
DISCID=27128015
DTITLE=Elvis Costello - The Very Best Of Disc1
DYEAR=1999
DGENRE=Rock
TTITLE0=(What's So Funny 'Bout) Peace, Love and Understanding
TTITLE1=Oliver's Army
TTITLE2=Watching The Detectives
TTITLE3=Alison
TTITLE4=(I Don't Want To Go To) Chelsea
TTITLE5=Accidents Will Happen
TTITLE6=Pump It Up
TTITLE7=I Can't Stand Up For Falling Down
TTITLE8=Radio Radio
TTITLE9=Clubland
TTITLE10=Good Year For The Roses
TTITLE11=Man Out Of Time
TTITLE12=I Wanna Be Loved
TTITLE13=Everyday I Write The Book
TTITLE14=Brilliant Mistake
TTITLE15=The Other Side Of Summer
TTITLE16=Tokyo Storm Waiting
TTITLE17=Sulky Girl
TTITLE18=So Like Candy
TTITLE19=Veronica
TTITLE20=She
EXTD=YEAR: 1999
EXTT0=
EXTT1=
EXTT2=
EXTT3=
EXTT4=
EXTT5=
EXTT6=
EXTT7=
EXTT8=
EXTT9=
EXTT10=
EXTT11=
EXTT12=
EXTT13=
EXTT14=
EXTT15=
EXTT16=
EXTT17=
EXTT18=
EXTT19=
EXTT20=
PLAYORDER=
